<svg width="48" height="48" viewBox="0 0 48 48" xmlns="http://www.w3.org/2000/svg">
  <circle cx="24" cy="24" r="4" fill="none" stroke="white" stroke-width="2"/>
  <path d="M 33.659 26.588 A 10 10 0 0 1 31.071 31.071 L 35.314 35.314 A 16 16 0 0 1 28.141 39.455 L 26.588 33.659 A 10 10 0 0 1 21.412 33.659 L 19.859 39.455 A 16 16 0 0 1 12.686 35.314 L 16.929 31.071 A 10 10 0 0 1 14.341 26.588 L 8.545 28.141 A 16 16 0 0 1 8.545 19.859 L 14.341 21.412 A 10 10 0 0 1 16.929 16.929 L 12.686 12.686 A 16 16 0 0 1 19.859 8.545 L 21.412 14.341 A 10 10 0 0 1 26.588 14.341 L 28.141 8.545 A 16 16 0 0 1 35.314 12.686 L 31.071 16.929 A 10 10 0 0 1 33.659 21.412 L 39.455 19.859 A 16 16 0 0 1 39.455 28.141 Z" fill="none" stroke="white" stroke-width="2" stroke-linejoin="round"/>
</svg>
